# Tiled2Unity generated file. Do not modify by hand.
# Wavefront file for 'library_mesh_0004.obj'

# Vertices (Count = 588)
v -28 -8 -0.3111111
v -30 -8 -0.3111111
v -30 -6 -0.3111111
v -28 -6 -0.3111111
v -40 -14 -0.5777778
v -42 -14 -0.5777778
v -42 -12 -0.5777778
v -40 -12 -0.5777778
v -16 -3 -0.08888889
v -18 -3 -0.08888889
v -18 -1 -0.08888889
v -16 -1 -0.08888889
v -17 -3.5 -0.1111111
v -19 -3.5 -0.1111111
v -19 -1.5 -0.1111111
v -17 -1.5 -0.1111111
v -18 -4 -0.1333333
v -20 -4 -0.1333333
v -20 -2 -0.1333333
v -18 -2 -0.1333333
v -19 -4.5 -0.1555556
v -21 -4.5 -0.1555556
v -21 -2.5 -0.1555556
v -19 -2.5 -0.1555556
v -20 -5 -0.1777778
v -22 -5 -0.1777778
v -22 -3 -0.1777778
v -20 -3 -0.1777778
v -21 -5.5 -0.2
v -23 -5.5 -0.2
v -23 -3.5 -0.2
v -21 -3.5 -0.2
v -22 -6 -0.2222222
v -24 -6 -0.2222222
v -24 -4 -0.2222222
v -22 -4 -0.2222222
v -23 -6.5 -0.2444444
v -25 -6.5 -0.2444444
v -25 -4.5 -0.2444444
v -23 -4.5 -0.2444444
v -24 -7 -0.2666667
v -26 -7 -0.2666667
v -26 -5 -0.2666667
v -24 -5 -0.2666667
v -25 -7.5 -0.2888889
v -27 -7.5 -0.2888889
v -27 -5.5 -0.2888889
v -25 -5.5 -0.2888889
v -26 -8 -0.3111111
v -28 -8 -0.3111111
v -28 -6 -0.3111111
v -26 -6 -0.3111111
v -27 -8.5 -0.3333333
v -29 -8.5 -0.3333333
v -29 -6.5 -0.3333333
v -27 -6.5 -0.3333333
v -28 -9 -0.3555556
v -30 -9 -0.3555556
v -30 -7 -0.3555556
v -28 -7 -0.3555556
v -29 -9.5 -0.3777778
v -31 -9.5 -0.3777778
v -31 -7.5 -0.3777778
v -29 -7.5 -0.3777778
v -30 -10 -0.4
v -32 -10 -0.4
v -32 -8 -0.4
v -30 -8 -0.4
v -31 -10.5 -0.4222222
v -33 -10.5 -0.4222222
v -33 -8.5 -0.4222222
v -31 -8.5 -0.4222222
v -32 -11 -0.4444444
v -34 -11 -0.4444444
v -34 -9 -0.4444444
v -32 -9 -0.4444444
v -33 -11.5 -0.4666667
v -35 -11.5 -0.4666667
v -35 -9.5 -0.4666667
v -33 -9.5 -0.4666667
v -34 -12 -0.4888889
v -36 -12 -0.4888889
v -36 -10 -0.4888889
v -34 -10 -0.4888889
v -35 -12.5 -0.5111111
v -37 -12.5 -0.5111111
v -37 -10.5 -0.5111111
v -35 -10.5 -0.5111111
v -36 -13 -0.5333334
v -38 -13 -0.5333334
v -38 -11 -0.5333334
v -36 -11 -0.5333334
v -37 -13.5 -0.5555556
v -39 -13.5 -0.5555556
v -39 -11.5 -0.5555556
v -37 -11.5 -0.5555556
v -38 -14 -0.5777778
v -40 -14 -0.5777778
v -40 -12 -0.5777778
v -38 -12 -0.5777778
v -39 -14.5 -0.6
v -41 -14.5 -0.6
v -41 -12.5 -0.6
v -39 -12.5 -0.6
v -40 -15 -0.6222222
v -42 -15 -0.6222222
v -42 -13 -0.6222222
v -40 -13 -0.6222222
v -41 -15.5 -0.6444445
v -43 -15.5 -0.6444445
v -43 -13.5 -0.6444445
v -41 -13.5 -0.6444445
v -42 -16 -0.6666667
v -44 -16 -0.6666667
v -44 -14 -0.6666667
v -42 -14 -0.6666667
v -14 -3 -0.08888889
v -16 -3 -0.08888889
v -16 -1 -0.08888889
v -14 -1 -0.08888889
v -41 -16.5 -0.6888889
v -43 -16.5 -0.6888889
v -43 -14.5 -0.6888889
v -41 -14.5 -0.6888889
v -12 -3 -0.08888889
v -14 -3 -0.08888889
v -14 -1 -0.08888889
v -12 -1 -0.08888889
v -13 -3.5 -0.1111111
v -15 -3.5 -0.1111111
v -15 -1.5 -0.1111111
v -13 -1.5 -0.1111111
v -19 -6.5 -0.2444444
v -21 -6.5 -0.2444444
v -21 -4.5 -0.2444444
v -19 -4.5 -0.2444444
v -21 -7.5 -0.2888889
v -23 -7.5 -0.2888889
v -23 -5.5 -0.2888889
v -21 -5.5 -0.2888889
v -23 -8.5 -0.3333333
v -25 -8.5 -0.3333333
v -25 -6.5 -0.3333333
v -23 -6.5 -0.3333333
v -24 -9 -0.3555556
v -26 -9 -0.3555556
v -26 -7 -0.3555556
v -24 -7 -0.3555556
v -26 -10 -0.4
v -28 -10 -0.4
v -28 -8 -0.4
v -26 -8 -0.4
v -27 -10.5 -0.4222222
v -29 -10.5 -0.4222222
v -29 -8.5 -0.4222222
v -27 -8.5 -0.4222222
v -28 -11 -0.4444444
v -30 -11 -0.4444444
v -30 -9 -0.4444444
v -28 -9 -0.4444444
v -29 -11.5 -0.4666667
v -31 -11.5 -0.4666667
v -31 -9.5 -0.4666667
v -29 -9.5 -0.4666667
v -32 -13 -0.5333334
v -34 -13 -0.5333334
v -34 -11 -0.5333334
v -32 -11 -0.5333334
v -34 -14 -0.5777778
v -36 -14 -0.5777778
v -36 -12 -0.5777778
v -34 -12 -0.5777778
v -36 -15 -0.6222222
v -38 -15 -0.6222222
v -38 -13 -0.6222222
v -36 -13 -0.6222222
v -38 -16 -0.6666667
v -40 -16 -0.6666667
v -40 -14 -0.6666667
v -38 -14 -0.6666667
v -40 -17 -0.7111111
v -42 -17 -0.7111111
v -42 -15 -0.7111111
v -40 -15 -0.7111111
v -12 -4 -0.1333333
v -14 -4 -0.1333333
v -14 -2 -0.1333333
v -12 -2 -0.1333333
v -18 -7 -0.2666667
v -20 -7 -0.2666667
v -20 -5 -0.2666667
v -18 -5 -0.2666667
v -20 -8 -0.3111111
v -22 -8 -0.3111111
v -22 -6 -0.3111111
v -20 -6 -0.3111111
v -22 -9 -0.3555556
v -24 -9 -0.3555556
v -24 -7 -0.3555556
v -22 -7 -0.3555556
v -23 -9.5 -0.3777778
v -25 -9.5 -0.3777778
v -25 -7.5 -0.3777778
v -23 -7.5 -0.3777778
v -26 -11 -0.4444444
v -28 -11 -0.4444444
v -28 -9 -0.4444444
v -26 -9 -0.4444444
v -27 -11.5 -0.4666667
v -29 -11.5 -0.4666667
v -29 -9.5 -0.4666667
v -27 -9.5 -0.4666667
v -28 -12 -0.4888889
v -30 -12 -0.4888889
v -30 -10 -0.4888889
v -28 -10 -0.4888889
v -31 -13.5 -0.5555556
v -33 -13.5 -0.5555556
v -33 -11.5 -0.5555556
v -31 -11.5 -0.5555556
v -32 -14 -0.5777778
v -34 -14 -0.5777778
v -34 -12 -0.5777778
v -32 -12 -0.5777778
v -33 -14.5 -0.6
v -35 -14.5 -0.6
v -35 -12.5 -0.6
v -33 -12.5 -0.6
v -34 -15 -0.6222222
v -36 -15 -0.6222222
v -36 -13 -0.6222222
v -34 -13 -0.6222222
v -35 -15.5 -0.6444445
v -37 -15.5 -0.6444445
v -37 -13.5 -0.6444445
v -35 -13.5 -0.6444445
v -36 -16 -0.6666667
v -38 -16 -0.6666667
v -38 -14 -0.6666667
v -36 -14 -0.6666667
v -37 -16.5 -0.6888889
v -39 -16.5 -0.6888889
v -39 -14.5 -0.6888889
v -37 -14.5 -0.6888889
v -39 -17.5 -0.7333333
v -41 -17.5 -0.7333333
v -41 -15.5 -0.7333333
v -39 -15.5 -0.7333333
v -11 -4.5 -0.1555556
v -13 -4.5 -0.1555556
v -13 -2.5 -0.1555556
v -11 -2.5 -0.1555556
v -13 -5.5 -0.2
v -15 -5.5 -0.2
v -15 -3.5 -0.2
v -13 -3.5 -0.2
v -21 -9.5 -0.3777778
v -23 -9.5 -0.3777778
v -23 -7.5 -0.3777778
v -21 -7.5 -0.3777778
v -22 -10 -0.4
v -24 -10 -0.4
v -24 -8 -0.4
v -22 -8 -0.4
v -10 -5 -0.1777778
v -12 -5 -0.1777778
v -12 -3 -0.1777778
v -10 -3 -0.1777778
v -12 -6 -0.2222222
v -14 -6 -0.2222222
v -14 -4 -0.2222222
v -12 -4 -0.2222222
v -29 -14.5 -0.6
v -31 -14.5 -0.6
v -31 -12.5 -0.6
v -29 -12.5 -0.6
v -31 -15.5 -0.6444445
v -33 -15.5 -0.6444445
v -33 -13.5 -0.6444445
v -31 -13.5 -0.6444445
v -34 -17 -0.7111111
v -36 -17 -0.7111111
v -36 -15 -0.7111111
v -34 -15 -0.7111111
v -36 -18 -0.7555556
v -38 -18 -0.7555556
v -38 -16 -0.7555556
v -36 -16 -0.7555556
v -9 -5.5 -0.2
v -11 -5.5 -0.2
v -11 -3.5 -0.2
v -9 -3.5 -0.2
v -11 -6.5 -0.2444444
v -13 -6.5 -0.2444444
v -13 -4.5 -0.2444444
v -11 -4.5 -0.2444444
v -13 -7.5 -0.2888889
v -15 -7.5 -0.2888889
v -15 -5.5 -0.2888889
v -13 -5.5 -0.2888889
v -15 -8.5 -0.3333333
v -17 -8.5 -0.3333333
v -17 -6.5 -0.3333333
v -15 -6.5 -0.3333333
v -16 -9 -0.3555556
v -18 -9 -0.3555556
v -18 -7 -0.3555556
v -16 -7 -0.3555556
v -17 -9.5 -0.3777778
v -19 -9.5 -0.3777778
v -19 -7.5 -0.3777778
v -17 -7.5 -0.3777778
v -19 -10.5 -0.4222222
v -21 -10.5 -0.4222222
v -21 -8.5 -0.4222222
v -19 -8.5 -0.4222222
v -20 -11 -0.4444444
v -22 -11 -0.4444444
v -22 -9 -0.4444444
v -20 -9 -0.4444444
v -23 -12.5 -0.5111111
v -25 -12.5 -0.5111111
v -25 -10.5 -0.5111111
v -23 -10.5 -0.5111111
v -24 -13 -0.5333334
v -26 -13 -0.5333334
v -26 -11 -0.5333334
v -24 -11 -0.5333334
v -8 -6 -0.2222222
v -10 -6 -0.2222222
v -10 -4 -0.2222222
v -8 -4 -0.2222222
v -10 -7 -0.2666667
v -12 -7 -0.2666667
v -12 -5 -0.2666667
v -10 -5 -0.2666667
v -14 -9 -0.3555556
v -16 -9 -0.3555556
v -16 -7 -0.3555556
v -14 -7 -0.3555556
v -15 -9.5 -0.3777778
v -17 -9.5 -0.3777778
v -17 -7.5 -0.3777778
v -15 -7.5 -0.3777778
v -16 -10 -0.4
v -18 -10 -0.4
v -18 -8 -0.4
v -16 -8 -0.4
v -18 -11 -0.4444444
v -20 -11 -0.4444444
v -20 -9 -0.4444444
v -18 -9 -0.4444444
v -19 -11.5 -0.4666667
v -21 -11.5 -0.4666667
v -21 -9.5 -0.4666667
v -19 -9.5 -0.4666667
v -21 -12.5 -0.5111111
v -23 -12.5 -0.5111111
v -23 -10.5 -0.5111111
v -21 -10.5 -0.5111111
v -22 -13 -0.5333334
v -24 -13 -0.5333334
v -24 -11 -0.5333334
v -22 -11 -0.5333334
v -23 -13.5 -0.5555556
v -25 -13.5 -0.5555556
v -25 -11.5 -0.5555556
v -23 -11.5 -0.5555556
v -24 -14 -0.5777778
v -26 -14 -0.5777778
v -26 -12 -0.5777778
v -24 -12 -0.5777778
v -32 -18 -0.7555556
v -34 -18 -0.7555556
v -34 -16 -0.7555556
v -32 -16 -0.7555556
v -33 -18.5 -0.7777778
v -35 -18.5 -0.7777778
v -35 -16.5 -0.7777778
v -33 -16.5 -0.7777778
v -34 -19 -0.8
v -36 -19 -0.8
v -36 -17 -0.8
v -34 -17 -0.8
v -35 -19.5 -0.8222222
v -37 -19.5 -0.8222222
v -37 -17.5 -0.8222222
v -35 -17.5 -0.8222222
v -7 -6.5 -0.2444444
v -9 -6.5 -0.2444444
v -9 -4.5 -0.2444444
v -7 -4.5 -0.2444444
v -9 -7.5 -0.2888889
v -11 -7.5 -0.2888889
v -11 -5.5 -0.2888889
v -9 -5.5 -0.2888889
v -11 -8.5 -0.3333333
v -13 -8.5 -0.3333333
v -13 -6.5 -0.3333333
v -11 -6.5 -0.3333333
v -13 -9.5 -0.3777778
v -15 -9.5 -0.3777778
v -15 -7.5 -0.3777778
v -13 -7.5 -0.3777778
v -15 -10.5 -0.4222222
v -17 -10.5 -0.4222222
v -17 -8.5 -0.4222222
v -15 -8.5 -0.4222222
v -17 -11.5 -0.4666667
v -19 -11.5 -0.4666667
v -19 -9.5 -0.4666667
v -17 -9.5 -0.4666667
v -18 -12 -0.4888889
v -20 -12 -0.4888889
v -20 -10 -0.4888889
v -18 -10 -0.4888889
v -26 -16 -0.6666667
v -28 -16 -0.6666667
v -28 -14 -0.6666667
v -26 -14 -0.6666667
v -27 -16.5 -0.6888889
v -29 -16.5 -0.6888889
v -29 -14.5 -0.6888889
v -27 -14.5 -0.6888889
v -28 -17 -0.7111111
v -30 -17 -0.7111111
v -30 -15 -0.7111111
v -28 -15 -0.7111111
v -29 -17.5 -0.7333333
v -31 -17.5 -0.7333333
v -31 -15.5 -0.7333333
v -29 -15.5 -0.7333333
v -32 -19 -0.8
v -34 -19 -0.8
v -34 -17 -0.8
v -32 -17 -0.8
v -6 -7 -0.2666667
v -8 -7 -0.2666667
v -8 -5 -0.2666667
v -6 -5 -0.2666667
v -8 -8 -0.3111111
v -10 -8 -0.3111111
v -10 -6 -0.3111111
v -8 -6 -0.3111111
v -12 -10 -0.4
v -14 -10 -0.4
v -14 -8 -0.4
v -12 -8 -0.4
v -13 -10.5 -0.4222222
v -15 -10.5 -0.4222222
v -15 -8.5 -0.4222222
v -13 -8.5 -0.4222222
v -14 -11 -0.4444444
v -16 -11 -0.4444444
v -16 -9 -0.4444444
v -14 -9 -0.4444444
v -29 -18.5 -0.7777778
v -31 -18.5 -0.7777778
v -31 -16.5 -0.7777778
v -29 -16.5 -0.7777778
v -30 -19 -0.8
v -32 -19 -0.8
v -32 -17 -0.8
v -30 -17 -0.8
v -33 -20.5 -0.8666667
v -35 -20.5 -0.8666667
v -35 -18.5 -0.8666667
v -33 -18.5 -0.8666667
v -5 -7.5 -0.2888889
v -7 -7.5 -0.2888889
v -7 -5.5 -0.2888889
v -5 -5.5 -0.2888889
v -7 -8.5 -0.3333333
v -9 -8.5 -0.3333333
v -9 -6.5 -0.3333333
v -7 -6.5 -0.3333333
v -11 -10.5 -0.4222222
v -13 -10.5 -0.4222222
v -13 -8.5 -0.4222222
v -11 -8.5 -0.4222222
v -13 -11.5 -0.4666667
v -15 -11.5 -0.4666667
v -15 -9.5 -0.4666667
v -13 -9.5 -0.4666667
v -32 -21 -0.8888889
v -34 -21 -0.8888889
v -34 -19 -0.8888889
v -32 -19 -0.8888889
v -3 -7.5 -0.2888889
v -5 -7.5 -0.2888889
v -5 -5.5 -0.2888889
v -3 -5.5 -0.2888889
v -4 -8 -0.3111111
v -6 -8 -0.3111111
v -6 -6 -0.3111111
v -4 -6 -0.3111111
v -6 -9 -0.3555556
v -8 -9 -0.3555556
v -8 -7 -0.3555556
v -6 -7 -0.3555556
v -8 -10 -0.4
v -10 -10 -0.4
v -10 -8 -0.4
v -8 -8 -0.4
v -13 -12.5 -0.5111111
v -15 -12.5 -0.5111111
v -15 -10.5 -0.5111111
v -13 -10.5 -0.5111111
v -21 -16.5 -0.6888889
v -23 -16.5 -0.6888889
v -23 -14.5 -0.6888889
v -21 -14.5 -0.6888889
v -23 -17.5 -0.7333333
v -25 -17.5 -0.7333333
v -25 -15.5 -0.7333333
v -23 -15.5 -0.7333333
v -25 -18.5 -0.7777778
v -27 -18.5 -0.7777778
v -27 -16.5 -0.7777778
v -25 -16.5 -0.7777778
v -27 -19.5 -0.8222222
v -29 -19.5 -0.8222222
v -29 -17.5 -0.8222222
v -27 -17.5 -0.8222222
v -3 -8.5 -0.3333333
v -5 -8.5 -0.3333333
v -5 -6.5 -0.3333333
v -3 -6.5 -0.3333333
v -5 -9.5 -0.3777778
v -7 -9.5 -0.3777778
v -7 -7.5 -0.3777778
v -5 -7.5 -0.3777778
v -12 -13 -0.5333334
v -14 -13 -0.5333334
v -14 -11 -0.5333334
v -12 -11 -0.5333334
v -20 -17 -0.7111111
v -22 -17 -0.7111111
v -22 -15 -0.7111111
v -20 -15 -0.7111111
v -22 -18 -0.7555556
v -24 -18 -0.7555556
v -24 -16 -0.7555556
v -22 -16 -0.7555556
v -23 -18.5 -0.7777778
v -25 -18.5 -0.7777778
v -25 -16.5 -0.7777778
v -23 -16.5 -0.7777778
v -24 -19 -0.8
v -26 -19 -0.8
v -26 -17 -0.8
v -24 -17 -0.8
v -25 -19.5 -0.8222222
v -27 -19.5 -0.8222222
v -27 -17.5 -0.8222222
v -25 -17.5 -0.8222222
v -26 -20 -0.8444445
v -28 -20 -0.8444445
v -28 -18 -0.8444445
v -26 -18 -0.8444445
v -27 -20.5 -0.8666667
v -29 -20.5 -0.8666667
v -29 -18.5 -0.8666667
v -27 -18.5 -0.8666667
v -30 -22 -0.9333333
v -32 -22 -0.9333333
v -32 -20 -0.9333333
v -30 -20 -0.9333333
v -2 -9 -0.3555556
v -4 -9 -0.3555556
v -4 -7 -0.3555556
v -2 -7 -0.3555556
v -6 -11 -0.4444444
v -8 -11 -0.4444444
v -8 -9 -0.4444444
v -6 -9 -0.4444444
v -11 -13.5 -0.5555556
v -13 -13.5 -0.5555556
v -13 -11.5 -0.5555556
v -11 -11.5 -0.5555556
v -19 -17.5 -0.7333333
v -21 -17.5 -0.7333333
v -21 -15.5 -0.7333333
v -19 -15.5 -0.7333333
v -29 -22.5 -0.9555556
v -31 -22.5 -0.9555556
v -31 -20.5 -0.9555556
v -29 -20.5 -0.9555556

# Texture cooridinates (Count = 35)
vt 0.2 0.6
vt 0.4 0.6
vt 0.4 0.8
vt 0.2 0.8
vt 0.6 0.6
vt 0.6 0.8
vt 0.8 0.8
vt 1 0.8
vt 1 1
vt 0.8 1
vt 0 0
vt 0.2 0
vt 0.2 0.2
vt 0 0.2
vt 0.8 0.6
vt 1 0.6
vt 0.8 0.4
vt 1 0.4
vt 0.6 0
vt 0.8 0
vt 0.8 0.2
vt 0.6 0.2
vt 0.6 1
vt 0.4 1
vt 0.6 0.4
vt 0 0.4
vt 0.2 0.4
vt 0 0.6
vt 1 0.2
vt 0 0.8
vt 0.4 0
vt 0.4 0.2
vt 0.4 0.4
vt 1 0
vt 0.2 1

# Normal
vn 0 0 -1

# Mesh description
g library_mesh_0004

# Faces
f 1/1/1 2/2/1 3/3/1 4/4/1
f 5/2/1 6/5/1 7/6/1 8/3/1
f 9/7/1 10/8/1 11/9/1 12/10/1
f 13/11/1 14/12/1 15/13/1 16/14/1
f 17/15/1 18/16/1 19/8/1 20/7/1
f 21/15/1 22/16/1 23/8/1 24/7/1
f 25/15/1 26/16/1 27/8/1 28/7/1
f 29/15/1 30/16/1 31/8/1 32/7/1
f 33/15/1 34/16/1 35/8/1 36/7/1
f 37/15/1 38/16/1 39/8/1 40/7/1
f 41/15/1 42/16/1 43/8/1 44/7/1
f 45/15/1 46/16/1 47/8/1 48/7/1
f 49/15/1 50/16/1 51/8/1 52/7/1
f 53/15/1 54/16/1 55/8/1 56/7/1
f 57/17/1 58/18/1 59/16/1 60/15/1
f 61/15/1 62/16/1 63/8/1 64/7/1
f 65/15/1 66/16/1 67/8/1 68/7/1
f 69/15/1 70/16/1 71/8/1 72/7/1
f 73/15/1 74/16/1 75/8/1 76/7/1
f 77/15/1 78/16/1 79/8/1 80/7/1
f 81/15/1 82/16/1 83/8/1 84/7/1
f 85/15/1 86/16/1 87/8/1 88/7/1
f 89/15/1 90/16/1 91/8/1 92/7/1
f 93/15/1 94/16/1 95/8/1 96/7/1
f 97/15/1 98/16/1 99/8/1 100/7/1
f 101/15/1 102/16/1 103/8/1 104/7/1
f 105/15/1 106/16/1 107/8/1 108/7/1
f 109/15/1 110/16/1 111/8/1 112/7/1
f 113/15/1 114/16/1 115/8/1 116/7/1
f 117/5/1 118/15/1 119/7/1 120/6/1
f 121/19/1 122/20/1 123/21/1 124/22/1
f 125/3/1 126/6/1 127/23/1 128/24/1
f 129/5/1 130/15/1 131/7/1 132/6/1
f 133/5/1 134/15/1 135/7/1 136/6/1
f 137/5/1 138/15/1 139/7/1 140/6/1
f 141/22/1 142/21/1 143/17/1 144/25/1
f 145/26/1 146/27/1 147/1/1 148/28/1
f 149/11/1 150/12/1 151/13/1 152/14/1
f 153/21/1 154/29/1 155/18/1 156/17/1
f 157/21/1 158/29/1 159/18/1 160/17/1
f 161/21/1 162/29/1 163/18/1 164/17/1
f 165/5/1 166/15/1 167/7/1 168/6/1
f 169/5/1 170/15/1 171/7/1 172/6/1
f 173/5/1 174/15/1 175/7/1 176/6/1
f 177/5/1 178/15/1 179/7/1 180/6/1
f 181/28/1 182/1/1 183/4/1 184/30/1
f 185/5/1 186/15/1 187/7/1 188/6/1
f 189/5/1 190/15/1 191/7/1 192/6/1
f 193/5/1 194/15/1 195/7/1 196/6/1
f 197/22/1 198/21/1 199/17/1 200/25/1
f 201/26/1 202/27/1 203/1/1 204/28/1
f 205/26/1 206/27/1 207/1/1 208/28/1
f 209/26/1 210/27/1 211/1/1 212/28/1
f 213/26/1 214/27/1 215/1/1 216/28/1
f 217/15/1 218/16/1 219/8/1 220/7/1
f 221/15/1 222/16/1 223/8/1 224/7/1
f 225/15/1 226/16/1 227/8/1 228/7/1
f 229/15/1 230/16/1 231/8/1 232/7/1
f 233/15/1 234/16/1 235/8/1 236/7/1
f 237/15/1 238/16/1 239/8/1 240/7/1
f 241/11/1 242/12/1 243/13/1 244/14/1
f 245/19/1 246/20/1 247/21/1 248/22/1
f 249/5/1 250/15/1 251/7/1 252/6/1
f 253/5/1 254/15/1 255/7/1 256/6/1
f 257/22/1 258/21/1 259/17/1 260/25/1
f 261/26/1 262/27/1 263/1/1 264/28/1
f 265/5/1 266/15/1 267/7/1 268/6/1
f 269/5/1 270/15/1 271/7/1 272/6/1
f 273/5/1 274/15/1 275/7/1 276/6/1
f 277/5/1 278/15/1 279/7/1 280/6/1
f 281/5/1 282/15/1 283/7/1 284/6/1
f 285/5/1 286/15/1 287/7/1 288/6/1
f 289/5/1 290/15/1 291/7/1 292/6/1
f 293/5/1 294/15/1 295/7/1 296/6/1
f 297/15/1 298/16/1 299/8/1 300/7/1
f 301/5/1 302/15/1 303/7/1 304/6/1
f 305/17/1 306/18/1 307/16/1 308/15/1
f 309/25/1 310/17/1 311/15/1 312/5/1
f 313/31/1 314/19/1 315/22/1 316/32/1
f 317/31/1 318/19/1 319/22/1 320/32/1
f 321/31/1 322/19/1 323/22/1 324/32/1
f 325/31/1 326/19/1 327/22/1 328/32/1
f 329/5/1 330/15/1 331/7/1 332/6/1
f 333/5/1 334/15/1 335/7/1 336/6/1
f 337/5/1 338/15/1 339/7/1 340/6/1
f 341/12/1 342/31/1 343/32/1 344/13/1
f 345/25/1 346/17/1 347/15/1 348/5/1
f 349/28/1 350/1/1 351/4/1 352/30/1
f 353/28/1 354/1/1 355/4/1 356/30/1
f 357/12/1 358/31/1 359/32/1 360/13/1
f 361/28/1 362/1/1 363/4/1 364/30/1
f 365/28/1 366/1/1 367/4/1 368/30/1
f 369/19/1 370/20/1 371/21/1 372/22/1
f 373/6/1 374/7/1 375/10/1 376/23/1
f 377/5/1 378/15/1 379/7/1 380/6/1
f 381/33/1 382/25/1 383/5/1 384/2/1
f 385/33/1 386/25/1 387/5/1 388/2/1
f 389/5/1 390/15/1 391/7/1 392/6/1
f 393/5/1 394/15/1 395/7/1 396/6/1
f 397/15/1 398/16/1 399/8/1 400/7/1
f 401/5/1 402/15/1 403/7/1 404/6/1
f 405/25/1 406/17/1 407/15/1 408/5/1
f 409/20/1 410/34/1 411/29/1 412/21/1
f 413/20/1 414/34/1 415/29/1 416/21/1
f 417/15/1 418/16/1 419/8/1 420/7/1
f 421/15/1 422/16/1 423/8/1 424/7/1
f 425/15/1 426/16/1 427/8/1 428/7/1
f 429/15/1 430/16/1 431/8/1 432/7/1
f 433/5/1 434/15/1 435/7/1 436/6/1
f 437/5/1 438/15/1 439/7/1 440/6/1
f 441/5/1 442/15/1 443/7/1 444/6/1
f 445/5/1 446/15/1 447/7/1 448/6/1
f 449/12/1 450/31/1 451/32/1 452/13/1
f 453/25/1 454/17/1 455/15/1 456/5/1
f 457/15/1 458/16/1 459/8/1 460/7/1
f 461/15/1 462/16/1 463/8/1 464/7/1
f 465/26/1 466/27/1 467/1/1 468/28/1
f 469/5/1 470/15/1 471/7/1 472/6/1
f 473/5/1 474/15/1 475/7/1 476/6/1
f 477/5/1 478/15/1 479/7/1 480/6/1
f 481/25/1 482/17/1 483/15/1 484/5/1
f 485/19/1 486/20/1 487/21/1 488/22/1
f 489/4/1 490/3/1 491/24/1 492/35/1
f 493/5/1 494/15/1 495/7/1 496/6/1
f 497/5/1 498/15/1 499/7/1 500/6/1
f 501/15/1 502/16/1 503/8/1 504/7/1
f 505/27/1 506/33/1 507/2/1 508/1/1
f 509/5/1 510/15/1 511/7/1 512/6/1
f 513/5/1 514/15/1 515/7/1 516/6/1
f 517/5/1 518/15/1 519/7/1 520/6/1
f 521/5/1 522/15/1 523/7/1 524/6/1
f 525/5/1 526/15/1 527/7/1 528/6/1
f 529/11/1 530/12/1 531/13/1 532/14/1
f 533/27/1 534/33/1 535/2/1 536/1/1
f 537/5/1 538/15/1 539/7/1 540/6/1
f 541/15/1 542/16/1 543/8/1 544/7/1
f 545/15/1 546/16/1 547/8/1 548/7/1
f 549/15/1 550/16/1 551/8/1 552/7/1
f 553/15/1 554/16/1 555/8/1 556/7/1
f 557/15/1 558/16/1 559/8/1 560/7/1
f 561/15/1 562/16/1 563/8/1 564/7/1
f 565/19/1 566/20/1 567/21/1 568/22/1
f 569/5/1 570/15/1 571/7/1 572/6/1
f 573/15/1 574/16/1 575/8/1 576/7/1
f 577/11/1 578/12/1 579/13/1 580/14/1
f 581/5/1 582/15/1 583/7/1 584/6/1
f 585/26/1 586/27/1 587/1/1 588/28/1

