# Tiled2Unity generated file. Do not modify by hand.
# Wavefront file for 'library_mesh_0004.obj'

# Vertices (Count = 32)
v -21 -3 -0.06666667
v -23 -3 -0.06666667
v -23 -1 -0.06666667
v -21 -1 -0.06666667
v -22 -3.5 -0.08333334
v -24 -3.5 -0.08333334
v -24 -1.5 -0.08333334
v -22 -1.5 -0.08333334
v -46 -15.5 -0.4833333
v -48 -15.5 -0.4833333
v -48 -13.5 -0.4833333
v -46 -13.5 -0.4833333
v -26 -16.5 -0.5166667
v -28 -16.5 -0.5166667
v -28 -14.5 -0.5166667
v -26 -14.5 -0.5166667
v -25 -17 -0.5333334
v -27 -17 -0.5333334
v -27 -15 -0.5333334
v -25 -15 -0.5333334
v -24 -17.5 -0.55
v -26 -17.5 -0.55
v -26 -15.5 -0.55
v -24 -15.5 -0.55
v -23 -18 -0.5666667
v -25 -18 -0.5666667
v -25 -16 -0.5666667
v -23 -16 -0.5666667
v -22 -18.5 -0.5833333
v -24 -18.5 -0.5833333
v -24 -16.5 -0.5833333
v -22 -16.5 -0.5833333

# Texture cooridinates (Count = 20)
vt 0.4 0.6
vt 0.6 0.6
vt 0.6 0.8
vt 0.4 0.8
vt 0.8 0.4
vt 1 0.4
vt 1 0.6
vt 0.8 0.6
vt 0.2 0
vt 0.4 0
vt 0.4 0.2
vt 0.2 0.2
vt 0 0.4
vt 0.2 0.4
vt 0.2 0.6
vt 0 0.6
vt 0.2 0.8
vt 0.4 1
vt 0.2 1
vt 0 0.2

# Normal
vn 0 0 -1

# Mesh description
g library_mesh_0004

# Faces
f 1/1/1 2/2/1 3/3/1 4/4/1
f 5/5/1 6/6/1 7/7/1 8/8/1
f 9/9/1 10/10/1 11/11/1 12/12/1
f 13/13/1 14/14/1 15/15/1 16/16/1
f 17/17/1 18/4/1 19/18/1 20/19/1
f 21/9/1 22/10/1 23/11/1 24/12/1
f 25/17/1 26/4/1 27/18/1 28/19/1
f 29/20/1 30/12/1 31/14/1 32/13/1

