# Tiled2Unity generated file. Do not modify by hand.
# Wavefront file for 'PuzzleRoom01_mesh_0002.obj'

# Vertices (Count = 76)
v -18 -5.5 -0.45
v -20 -5.5 -0.45
v -20 -3.5 -0.45
v -18 -3.5 -0.45
v -17 -6 -0.5
v -19 -6 -0.5
v -19 -4 -0.5
v -17 -4 -0.5
v -16 -6.5 -0.55
v -18 -6.5 -0.55
v -18 -4.5 -0.55
v -16 -4.5 -0.55
v -15 -7 -0.6
v -17 -7 -0.6
v -17 -5 -0.6
v -15 -5 -0.6
v -14 -7.5 -0.65
v -16 -7.5 -0.65
v -16 -5.5 -0.65
v -14 -5.5 -0.65
v -13 -8 -0.7
v -15 -8 -0.7
v -15 -6 -0.7
v -13 -6 -0.7
v -12 -8.5 -0.75
v -14 -8.5 -0.75
v -14 -6.5 -0.75
v -12 -6.5 -0.75
v -11 -9 -0.8
v -13 -9 -0.8
v -13 -7 -0.8
v -11 -7 -0.8
v -10 -9.5 -0.85
v -12 -9.5 -0.85
v -12 -7.5 -0.85
v -10 -7.5 -0.85
v 0 -5.5 -0.45
v -2 -5.5 -0.45
v -2 -3.5 -0.45
v 0 -3.5 -0.45
v -1 -6 -0.5
v -3 -6 -0.5
v -3 -4 -0.5
v -1 -4 -0.5
v -2 -6.5 -0.55
v -4 -6.5 -0.55
v -4 -4.5 -0.55
v -2 -4.5 -0.55
v -3 -7 -0.6
v -5 -7 -0.6
v -5 -5 -0.6
v -3 -5 -0.6
v -4 -7.5 -0.65
v -6 -7.5 -0.65
v -6 -5.5 -0.65
v -4 -5.5 -0.65
v -5 -8 -0.7
v -7 -8 -0.7
v -7 -6 -0.7
v -5 -6 -0.7
v -6 -8.5 -0.75
v -8 -8.5 -0.75
v -8 -6.5 -0.75
v -6 -6.5 -0.75
v -7 -9 -0.8
v -9 -9 -0.8
v -9 -7 -0.8
v -7 -7 -0.8
v -8 -9.5 -0.85
v -10 -9.5 -0.85
v -10 -7.5 -0.85
v -8 -7.5 -0.85
v -9 -10 -0.9
v -11 -10 -0.9
v -11 -8 -0.9
v -9 -8 -0.9

# Texture cooridinates (Count = 4)
vt 0 0.8
vt 0.2 0.8
vt 0.2 1
vt 0 1

# Normal
vn 0 0 -1

# Mesh description
g PuzzleRoom01_mesh_0002

# Faces
f 1/1/1 2/2/1 3/3/1 4/4/1
f 5/1/1 6/2/1 7/3/1 8/4/1
f 9/1/1 10/2/1 11/3/1 12/4/1
f 13/1/1 14/2/1 15/3/1 16/4/1
f 17/1/1 18/2/1 19/3/1 20/4/1
f 21/1/1 22/2/1 23/3/1 24/4/1
f 25/1/1 26/2/1 27/3/1 28/4/1
f 29/1/1 30/2/1 31/3/1 32/4/1
f 33/1/1 34/2/1 35/3/1 36/4/1
f 37/1/1 38/2/1 39/3/1 40/4/1
f 41/1/1 42/2/1 43/3/1 44/4/1
f 45/1/1 46/2/1 47/3/1 48/4/1
f 49/1/1 50/2/1 51/3/1 52/4/1
f 53/1/1 54/2/1 55/3/1 56/4/1
f 57/1/1 58/2/1 59/3/1 60/4/1
f 61/1/1 62/2/1 63/3/1 64/4/1
f 65/1/1 66/2/1 67/3/1 68/4/1
f 69/1/1 70/2/1 71/3/1 72/4/1
f 73/1/1 74/2/1 75/3/1 76/4/1

