# Tiled2Unity generated file. Do not modify by hand.
# Wavefront file for 'School_mesh_0006.obj'

# Vertices (Count = 20)
v -42 -5 -0.1230769
v -44 -5 -0.1230769
v -44 -3 -0.1230769
v -42 -3 -0.1230769
v -43 -5.5 -0.1384615
v -45 -5.5 -0.1384615
v -45 -3.5 -0.1384615
v -43 -3.5 -0.1384615
v -44 -6 -0.1538462
v -46 -6 -0.1538462
v -46 -4 -0.1538462
v -44 -4 -0.1538462
v -45 -6.5 -0.1692308
v -47 -6.5 -0.1692308
v -47 -4.5 -0.1692308
v -45 -4.5 -0.1692308
v -5 -21.5 -0.6307693
v -7 -21.5 -0.6307693
v -7 -19.5 -0.6307693
v -5 -19.5 -0.6307693

# Texture cooridinates (Count = 8)
vt 0.4 0.4
vt 0.6 0.4
vt 0.6 0.6
vt 0.4 0.6
vt 0.8 0.8
vt 1 0.8
vt 1 1
vt 0.8 1

# Normal
vn 0 0 -1

# Mesh description
g School_mesh_0006

# Faces
f 1/1/1 2/2/1 3/3/1 4/4/1
f 5/1/1 6/2/1 7/3/1 8/4/1
f 9/1/1 10/2/1 11/3/1 12/4/1
f 13/1/1 14/2/1 15/3/1 16/4/1
f 17/5/1 18/6/1 19/7/1 20/8/1

