# Tiled2Unity generated file. Do not modify by hand.
# Wavefront file for 'Classroom_mesh_0001.obj'

# Vertices (Count = 252)
v -8 -1 0
v -10 -1 0
v -10 1 0
v -8 1 0
v -9 -1.5 -0.0625
v -11 -1.5 -0.0625
v -11 0.5 -0.0625
v -9 0.5 -0.0625
v -10 -2 -0.125
v -12 -2 -0.125
v -12 0 -0.125
v -10 0 -0.125
v -11 -2.5 -0.1875
v -13 -2.5 -0.1875
v -13 -0.5 -0.1875
v -11 -0.5 -0.1875
v -12 -3 -0.25
v -14 -3 -0.25
v -14 -1 -0.25
v -12 -1 -0.25
v -13 -3.5 -0.3125
v -15 -3.5 -0.3125
v -15 -1.5 -0.3125
v -13 -1.5 -0.3125
v -14 -4 -0.375
v -16 -4 -0.375
v -16 -2 -0.375
v -14 -2 -0.375
v -7 -1.5 -0.0625
v -9 -1.5 -0.0625
v -9 0.5 -0.0625
v -7 0.5 -0.0625
v -8 -2 -0.125
v -10 -2 -0.125
v -10 0 -0.125
v -8 0 -0.125
v -9 -2.5 -0.1875
v -11 -2.5 -0.1875
v -11 -0.5 -0.1875
v -9 -0.5 -0.1875
v -10 -3 -0.25
v -12 -3 -0.25
v -12 -1 -0.25
v -10 -1 -0.25
v -11 -3.5 -0.3125
v -13 -3.5 -0.3125
v -13 -1.5 -0.3125
v -11 -1.5 -0.3125
v -12 -4 -0.375
v -14 -4 -0.375
v -14 -2 -0.375
v -12 -2 -0.375
v -13 -4.5 -0.4375
v -15 -4.5 -0.4375
v -15 -2.5 -0.4375
v -13 -2.5 -0.4375
v -6 -2 -0.125
v -8 -2 -0.125
v -8 0 -0.125
v -6 0 -0.125
v -7 -2.5 -0.1875
v -9 -2.5 -0.1875
v -9 -0.5 -0.1875
v -7 -0.5 -0.1875
v -8 -3 -0.25
v -10 -3 -0.25
v -10 -1 -0.25
v -8 -1 -0.25
v -9 -3.5 -0.3125
v -11 -3.5 -0.3125
v -11 -1.5 -0.3125
v -9 -1.5 -0.3125
v -10 -4 -0.375
v -12 -4 -0.375
v -12 -2 -0.375
v -10 -2 -0.375
v -11 -4.5 -0.4375
v -13 -4.5 -0.4375
v -13 -2.5 -0.4375
v -11 -2.5 -0.4375
v -12 -5 -0.5
v -14 -5 -0.5
v -14 -3 -0.5
v -12 -3 -0.5
v -5 -2.5 -0.1875
v -7 -2.5 -0.1875
v -7 -0.5 -0.1875
v -5 -0.5 -0.1875
v -6 -3 -0.25
v -8 -3 -0.25
v -8 -1 -0.25
v -6 -1 -0.25
v -7 -3.5 -0.3125
v -9 -3.5 -0.3125
v -9 -1.5 -0.3125
v -7 -1.5 -0.3125
v -8 -4 -0.375
v -10 -4 -0.375
v -10 -2 -0.375
v -8 -2 -0.375
v -9 -4.5 -0.4375
v -11 -4.5 -0.4375
v -11 -2.5 -0.4375
v -9 -2.5 -0.4375
v -10 -5 -0.5
v -12 -5 -0.5
v -12 -3 -0.5
v -10 -3 -0.5
v -11 -5.5 -0.5625
v -13 -5.5 -0.5625
v -13 -3.5 -0.5625
v -11 -3.5 -0.5625
v -4 -3 -0.25
v -6 -3 -0.25
v -6 -1 -0.25
v -4 -1 -0.25
v -5 -3.5 -0.3125
v -7 -3.5 -0.3125
v -7 -1.5 -0.3125
v -5 -1.5 -0.3125
v -6 -4 -0.375
v -8 -4 -0.375
v -8 -2 -0.375
v -6 -2 -0.375
v -7 -4.5 -0.4375
v -9 -4.5 -0.4375
v -9 -2.5 -0.4375
v -7 -2.5 -0.4375
v -8 -5 -0.5
v -10 -5 -0.5
v -10 -3 -0.5
v -8 -3 -0.5
v -9 -5.5 -0.5625
v -11 -5.5 -0.5625
v -11 -3.5 -0.5625
v -9 -3.5 -0.5625
v -10 -6 -0.625
v -12 -6 -0.625
v -12 -4 -0.625
v -10 -4 -0.625
v -3 -3.5 -0.3125
v -5 -3.5 -0.3125
v -5 -1.5 -0.3125
v -3 -1.5 -0.3125
v -4 -4 -0.375
v -6 -4 -0.375
v -6 -2 -0.375
v -4 -2 -0.375
v -5 -4.5 -0.4375
v -7 -4.5 -0.4375
v -7 -2.5 -0.4375
v -5 -2.5 -0.4375
v -6 -5 -0.5
v -8 -5 -0.5
v -8 -3 -0.5
v -6 -3 -0.5
v -7 -5.5 -0.5625
v -9 -5.5 -0.5625
v -9 -3.5 -0.5625
v -7 -3.5 -0.5625
v -8 -6 -0.625
v -10 -6 -0.625
v -10 -4 -0.625
v -8 -4 -0.625
v -9 -6.5 -0.6875
v -11 -6.5 -0.6875
v -11 -4.5 -0.6875
v -9 -4.5 -0.6875
v -2 -4 -0.375
v -4 -4 -0.375
v -4 -2 -0.375
v -2 -2 -0.375
v -3 -4.5 -0.4375
v -5 -4.5 -0.4375
v -5 -2.5 -0.4375
v -3 -2.5 -0.4375
v -4 -5 -0.5
v -6 -5 -0.5
v -6 -3 -0.5
v -4 -3 -0.5
v -5 -5.5 -0.5625
v -7 -5.5 -0.5625
v -7 -3.5 -0.5625
v -5 -3.5 -0.5625
v -6 -6 -0.625
v -8 -6 -0.625
v -8 -4 -0.625
v -6 -4 -0.625
v -7 -6.5 -0.6875
v -9 -6.5 -0.6875
v -9 -4.5 -0.6875
v -7 -4.5 -0.6875
v -8 -7 -0.75
v -10 -7 -0.75
v -10 -5 -0.75
v -8 -5 -0.75
v -1 -4.5 -0.4375
v -3 -4.5 -0.4375
v -3 -2.5 -0.4375
v -1 -2.5 -0.4375
v -2 -5 -0.5
v -4 -5 -0.5
v -4 -3 -0.5
v -2 -3 -0.5
v -3 -5.5 -0.5625
v -5 -5.5 -0.5625
v -5 -3.5 -0.5625
v -3 -3.5 -0.5625
v -4 -6 -0.625
v -6 -6 -0.625
v -6 -4 -0.625
v -4 -4 -0.625
v -5 -6.5 -0.6875
v -7 -6.5 -0.6875
v -7 -4.5 -0.6875
v -5 -4.5 -0.6875
v -6 -7 -0.75
v -8 -7 -0.75
v -8 -5 -0.75
v -6 -5 -0.75
v -7 -7.5 -0.8125
v -9 -7.5 -0.8125
v -9 -5.5 -0.8125
v -7 -5.5 -0.8125
v 0 -5 -0.5
v -2 -5 -0.5
v -2 -3 -0.5
v 0 -3 -0.5
v -1 -5.5 -0.5625
v -3 -5.5 -0.5625
v -3 -3.5 -0.5625
v -1 -3.5 -0.5625
v -2 -6 -0.625
v -4 -6 -0.625
v -4 -4 -0.625
v -2 -4 -0.625
v -3 -6.5 -0.6875
v -5 -6.5 -0.6875
v -5 -4.5 -0.6875
v -3 -4.5 -0.6875
v -4 -7 -0.75
v -6 -7 -0.75
v -6 -5 -0.75
v -4 -5 -0.75
v -5 -7.5 -0.8125
v -7 -7.5 -0.8125
v -7 -5.5 -0.8125
v -5 -5.5 -0.8125
v -6 -8 -0.875
v -8 -8 -0.875
v -8 -6 -0.875
v -6 -6 -0.875

# Texture cooridinates (Count = 12)
vt 0.6 0
vt 0.8 0
vt 0.8 0.2
vt 0.6 0.2
vt 0.8 0.4
vt 0.6 0.4
vt 0 0
vt 0.2 0
vt 0.2 0.2
vt 0 0.2
vt 0.4 0.2
vt 0.4 0.4

# Normal
vn 0 0 -1

# Mesh description
g Classroom_mesh_0001

# Faces
f 1/1/1 2/2/1 3/3/1 4/4/1
f 5/1/1 6/2/1 7/3/1 8/4/1
f 9/1/1 10/2/1 11/3/1 12/4/1
f 13/1/1 14/2/1 15/3/1 16/4/1
f 17/1/1 18/2/1 19/3/1 20/4/1
f 21/1/1 22/2/1 23/3/1 24/4/1
f 25/4/1 26/3/1 27/5/1 28/6/1
f 29/7/1 30/8/1 31/9/1 32/10/1
f 33/11/1 34/4/1 35/6/1 36/12/1
f 37/11/1 38/4/1 39/6/1 40/12/1
f 41/11/1 42/4/1 43/6/1 44/12/1
f 45/11/1 46/4/1 47/6/1 48/12/1
f 49/11/1 50/4/1 51/6/1 52/12/1
f 53/4/1 54/3/1 55/5/1 56/6/1
f 57/7/1 58/8/1 59/9/1 60/10/1
f 61/11/1 62/4/1 63/6/1 64/12/1
f 65/11/1 66/4/1 67/6/1 68/12/1
f 69/11/1 70/4/1 71/6/1 72/12/1
f 73/11/1 74/4/1 75/6/1 76/12/1
f 77/11/1 78/4/1 79/6/1 80/12/1
f 81/4/1 82/3/1 83/5/1 84/6/1
f 85/7/1 86/8/1 87/9/1 88/10/1
f 89/11/1 90/4/1 91/6/1 92/12/1
f 93/11/1 94/4/1 95/6/1 96/12/1
f 97/11/1 98/4/1 99/6/1 100/12/1
f 101/11/1 102/4/1 103/6/1 104/12/1
f 105/11/1 106/4/1 107/6/1 108/12/1
f 109/4/1 110/3/1 111/5/1 112/6/1
f 113/7/1 114/8/1 115/9/1 116/10/1
f 117/11/1 118/4/1 119/6/1 120/12/1
f 121/11/1 122/4/1 123/6/1 124/12/1
f 125/11/1 126/4/1 127/6/1 128/12/1
f 129/11/1 130/4/1 131/6/1 132/12/1
f 133/11/1 134/4/1 135/6/1 136/12/1
f 137/4/1 138/3/1 139/5/1 140/6/1
f 141/7/1 142/8/1 143/9/1 144/10/1
f 145/11/1 146/4/1 147/6/1 148/12/1
f 149/11/1 150/4/1 151/6/1 152/12/1
f 153/11/1 154/4/1 155/6/1 156/12/1
f 157/11/1 158/4/1 159/6/1 160/12/1
f 161/11/1 162/4/1 163/6/1 164/12/1
f 165/4/1 166/3/1 167/5/1 168/6/1
f 169/7/1 170/8/1 171/9/1 172/10/1
f 173/11/1 174/4/1 175/6/1 176/12/1
f 177/11/1 178/4/1 179/6/1 180/12/1
f 181/11/1 182/4/1 183/6/1 184/12/1
f 185/11/1 186/4/1 187/6/1 188/12/1
f 189/11/1 190/4/1 191/6/1 192/12/1
f 193/4/1 194/3/1 195/5/1 196/6/1
f 197/7/1 198/8/1 199/9/1 200/10/1
f 201/11/1 202/4/1 203/6/1 204/12/1
f 205/11/1 206/4/1 207/6/1 208/12/1
f 209/11/1 210/4/1 211/6/1 212/12/1
f 213/11/1 214/4/1 215/6/1 216/12/1
f 217/11/1 218/4/1 219/6/1 220/12/1
f 221/4/1 222/3/1 223/5/1 224/6/1
f 225/4/1 226/3/1 227/5/1 228/6/1
f 229/4/1 230/3/1 231/5/1 232/6/1
f 233/4/1 234/3/1 235/5/1 236/6/1
f 237/4/1 238/3/1 239/5/1 240/6/1
f 241/4/1 242/3/1 243/5/1 244/6/1
f 245/11/1 246/4/1 247/6/1 248/12/1
f 249/4/1 250/3/1 251/5/1 252/6/1

