# Tiled2Unity generated file. Do not modify by hand.
# Wavefront file for 'Classroom_mesh_0001.obj'

# Vertices (Count = 252)
v -8 -1 0
v -10 -1 0
v -10 1 0
v -8 1 0
v -9 -1.5 -0.0625
v -11 -1.5 -0.0625
v -11 0.5 -0.0625
v -9 0.5 -0.0625
v -10 -2 -0.125
v -12 -2 -0.125
v -12 0 -0.125
v -10 0 -0.125
v -11 -2.5 -0.1875
v -13 -2.5 -0.1875
v -13 -0.5 -0.1875
v -11 -0.5 -0.1875
v -12 -3 -0.25
v -14 -3 -0.25
v -14 -1 -0.25
v -12 -1 -0.25
v -13 -3.5 -0.3125
v -15 -3.5 -0.3125
v -15 -1.5 -0.3125
v -13 -1.5 -0.3125
v -14 -4 -0.375
v -16 -4 -0.375
v -16 -2 -0.375
v -14 -2 -0.375
v -7 -1.5 -0.0625
v -9 -1.5 -0.0625
v -9 0.5 -0.0625
v -7 0.5 -0.0625
v -8 -2 -0.125
v -10 -2 -0.125
v -10 0 -0.125
v -8 0 -0.125
v -9 -2.5 -0.1875
v -11 -2.5 -0.1875
v -11 -0.5 -0.1875
v -9 -0.5 -0.1875
v -10 -3 -0.25
v -12 -3 -0.25
v -12 -1 -0.25
v -10 -1 -0.25
v -11 -3.5 -0.3125
v -13 -3.5 -0.3125
v -13 -1.5 -0.3125
v -11 -1.5 -0.3125
v -12 -4 -0.375
v -14 -4 -0.375
v -14 -2 -0.375
v -12 -2 -0.375
v -13 -4.5 -0.4375
v -15 -4.5 -0.4375
v -15 -2.5 -0.4375
v -13 -2.5 -0.4375
v -6 -2 -0.125
v -8 -2 -0.125
v -8 0 -0.125
v -6 0 -0.125
v -7 -2.5 -0.1875
v -9 -2.5 -0.1875
v -9 -0.5 -0.1875
v -7 -0.5 -0.1875
v -8 -3 -0.25
v -10 -3 -0.25
v -10 -1 -0.25
v -8 -1 -0.25
v -9 -3.5 -0.3125
v -11 -3.5 -0.3125
v -11 -1.5 -0.3125
v -9 -1.5 -0.3125
v -10 -4 -0.375
v -12 -4 -0.375
v -12 -2 -0.375
v -10 -2 -0.375
v -11 -4.5 -0.4375
v -13 -4.5 -0.4375
v -13 -2.5 -0.4375
v -11 -2.5 -0.4375
v -12 -5 -0.5
v -14 -5 -0.5
v -14 -3 -0.5
v -12 -3 -0.5
v -5 -2.5 -0.1875
v -7 -2.5 -0.1875
v -7 -0.5 -0.1875
v -5 -0.5 -0.1875
v -6 -3 -0.25
v -8 -3 -0.25
v -8 -1 -0.25
v -6 -1 -0.25
v -7 -3.5 -0.3125
v -9 -3.5 -0.3125
v -9 -1.5 -0.3125
v -7 -1.5 -0.3125
v -8 -4 -0.375
v -10 -4 -0.375
v -10 -2 -0.375
v -8 -2 -0.375
v -9 -4.5 -0.4375
v -11 -4.5 -0.4375
v -11 -2.5 -0.4375
v -9 -2.5 -0.4375
v -10 -5 -0.5
v -12 -5 -0.5
v -12 -3 -0.5
v -10 -3 -0.5
v -11 -5.5 -0.5625
v -13 -5.5 -0.5625
v -13 -3.5 -0.5625
v -11 -3.5 -0.5625
v -4 -3 -0.25
v -6 -3 -0.25
v -6 -1 -0.25
v -4 -1 -0.25
v -5 -3.5 -0.3125
v -7 -3.5 -0.3125
v -7 -1.5 -0.3125
v -5 -1.5 -0.3125
v -6 -4 -0.375
v -8 -4 -0.375
v -8 -2 -0.375
v -6 -2 -0.375
v -7 -4.5 -0.4375
v -9 -4.5 -0.4375
v -9 -2.5 -0.4375
v -7 -2.5 -0.4375
v -8 -5 -0.5
v -10 -5 -0.5
v -10 -3 -0.5
v -8 -3 -0.5
v -9 -5.5 -0.5625
v -11 -5.5 -0.5625
v -11 -3.5 -0.5625
v -9 -3.5 -0.5625
v -10 -6 -0.625
v -12 -6 -0.625
v -12 -4 -0.625
v -10 -4 -0.625
v -3 -3.5 -0.3125
v -5 -3.5 -0.3125
v -5 -1.5 -0.3125
v -3 -1.5 -0.3125
v -4 -4 -0.375
v -6 -4 -0.375
v -6 -2 -0.375
v -4 -2 -0.375
v -5 -4.5 -0.4375
v -7 -4.5 -0.4375
v -7 -2.5 -0.4375
v -5 -2.5 -0.4375
v -6 -5 -0.5
v -8 -5 -0.5
v -8 -3 -0.5
v -6 -3 -0.5
v -7 -5.5 -0.5625
v -9 -5.5 -0.5625
v -9 -3.5 -0.5625
v -7 -3.5 -0.5625
v -8 -6 -0.625
v -10 -6 -0.625
v -10 -4 -0.625
v -8 -4 -0.625
v -9 -6.5 -0.6875
v -11 -6.5 -0.6875
v -11 -4.5 -0.6875
v -9 -4.5 -0.6875
v -2 -4 -0.375
v -4 -4 -0.375
v -4 -2 -0.375
v -2 -2 -0.375
v -3 -4.5 -0.4375
v -5 -4.5 -0.4375
v -5 -2.5 -0.4375
v -3 -2.5 -0.4375
v -4 -5 -0.5
v -6 -5 -0.5
v -6 -3 -0.5
v -4 -3 -0.5
v -5 -5.5 -0.5625
v -7 -5.5 -0.5625
v -7 -3.5 -0.5625
v -5 -3.5 -0.5625
v -6 -6 -0.625
v -8 -6 -0.625
v -8 -4 -0.625
v -6 -4 -0.625
v -7 -6.5 -0.6875
v -9 -6.5 -0.6875
v -9 -4.5 -0.6875
v -7 -4.5 -0.6875
v -8 -7 -0.75
v -10 -7 -0.75
v -10 -5 -0.75
v -8 -5 -0.75
v -1 -4.5 -0.4375
v -3 -4.5 -0.4375
v -3 -2.5 -0.4375
v -1 -2.5 -0.4375
v -2 -5 -0.5
v -4 -5 -0.5
v -4 -3 -0.5
v -2 -3 -0.5
v -3 -5.5 -0.5625
v -5 -5.5 -0.5625
v -5 -3.5 -0.5625
v -3 -3.5 -0.5625
v -4 -6 -0.625
v -6 -6 -0.625
v -6 -4 -0.625
v -4 -4 -0.625
v -5 -6.5 -0.6875
v -7 -6.5 -0.6875
v -7 -4.5 -0.6875
v -5 -4.5 -0.6875
v -6 -7 -0.75
v -8 -7 -0.75
v -8 -5 -0.75
v -6 -5 -0.75
v -7 -7.5 -0.8125
v -9 -7.5 -0.8125
v -9 -5.5 -0.8125
v -7 -5.5 -0.8125
v 0 -5 -0.5
v -2 -5 -0.5
v -2 -3 -0.5
v 0 -3 -0.5
v -1 -5.5 -0.5625
v -3 -5.5 -0.5625
v -3 -3.5 -0.5625
v -1 -3.5 -0.5625
v -2 -6 -0.625
v -4 -6 -0.625
v -4 -4 -0.625
v -2 -4 -0.625
v -3 -6.5 -0.6875
v -5 -6.5 -0.6875
v -5 -4.5 -0.6875
v -3 -4.5 -0.6875
v -4 -7 -0.75
v -6 -7 -0.75
v -6 -5 -0.75
v -4 -5 -0.75
v -5 -7.5 -0.8125
v -7 -7.5 -0.8125
v -7 -5.5 -0.8125
v -5 -5.5 -0.8125
v -6 -8 -0.875
v -8 -8 -0.875
v -8 -6 -0.875
v -6 -6 -0.875

# Texture cooridinates (Count = 10)
vt 0 0
vt 0.2 0
vt 0.2 0.2
vt 0 0.2
vt 0.6 0.2
vt 0.8 0.2
vt 0.8 0.4
vt 0.6 0.4
vt 0.4 0.2
vt 0.4 0.4

# Normal
vn 0 0 -1

# Mesh description
g Classroom_mesh_0001

# Faces
f 1/1/1 2/2/1 3/3/1 4/4/1
f 5/1/1 6/2/1 7/3/1 8/4/1
f 9/1/1 10/2/1 11/3/1 12/4/1
f 13/1/1 14/2/1 15/3/1 16/4/1
f 17/1/1 18/2/1 19/3/1 20/4/1
f 21/1/1 22/2/1 23/3/1 24/4/1
f 25/5/1 26/6/1 27/7/1 28/8/1
f 29/1/1 30/2/1 31/3/1 32/4/1
f 33/9/1 34/5/1 35/8/1 36/10/1
f 37/9/1 38/5/1 39/8/1 40/10/1
f 41/9/1 42/5/1 43/8/1 44/10/1
f 45/9/1 46/5/1 47/8/1 48/10/1
f 49/9/1 50/5/1 51/8/1 52/10/1
f 53/5/1 54/6/1 55/7/1 56/8/1
f 57/1/1 58/2/1 59/3/1 60/4/1
f 61/9/1 62/5/1 63/8/1 64/10/1
f 65/9/1 66/5/1 67/8/1 68/10/1
f 69/9/1 70/5/1 71/8/1 72/10/1
f 73/9/1 74/5/1 75/8/1 76/10/1
f 77/9/1 78/5/1 79/8/1 80/10/1
f 81/5/1 82/6/1 83/7/1 84/8/1
f 85/1/1 86/2/1 87/3/1 88/4/1
f 89/9/1 90/5/1 91/8/1 92/10/1
f 93/9/1 94/5/1 95/8/1 96/10/1
f 97/9/1 98/5/1 99/8/1 100/10/1
f 101/9/1 102/5/1 103/8/1 104/10/1
f 105/9/1 106/5/1 107/8/1 108/10/1
f 109/5/1 110/6/1 111/7/1 112/8/1
f 113/1/1 114/2/1 115/3/1 116/4/1
f 117/9/1 118/5/1 119/8/1 120/10/1
f 121/9/1 122/5/1 123/8/1 124/10/1
f 125/9/1 126/5/1 127/8/1 128/10/1
f 129/9/1 130/5/1 131/8/1 132/10/1
f 133/9/1 134/5/1 135/8/1 136/10/1
f 137/5/1 138/6/1 139/7/1 140/8/1
f 141/1/1 142/2/1 143/3/1 144/4/1
f 145/9/1 146/5/1 147/8/1 148/10/1
f 149/9/1 150/5/1 151/8/1 152/10/1
f 153/9/1 154/5/1 155/8/1 156/10/1
f 157/9/1 158/5/1 159/8/1 160/10/1
f 161/9/1 162/5/1 163/8/1 164/10/1
f 165/5/1 166/6/1 167/7/1 168/8/1
f 169/1/1 170/2/1 171/3/1 172/4/1
f 173/9/1 174/5/1 175/8/1 176/10/1
f 177/9/1 178/5/1 179/8/1 180/10/1
f 181/9/1 182/5/1 183/8/1 184/10/1
f 185/9/1 186/5/1 187/8/1 188/10/1
f 189/9/1 190/5/1 191/8/1 192/10/1
f 193/5/1 194/6/1 195/7/1 196/8/1
f 197/1/1 198/2/1 199/3/1 200/4/1
f 201/9/1 202/5/1 203/8/1 204/10/1
f 205/9/1 206/5/1 207/8/1 208/10/1
f 209/9/1 210/5/1 211/8/1 212/10/1
f 213/9/1 214/5/1 215/8/1 216/10/1
f 217/9/1 218/5/1 219/8/1 220/10/1
f 221/5/1 222/6/1 223/7/1 224/8/1
f 225/5/1 226/6/1 227/7/1 228/8/1
f 229/5/1 230/6/1 231/7/1 232/8/1
f 233/5/1 234/6/1 235/7/1 236/8/1
f 237/5/1 238/6/1 239/7/1 240/8/1
f 241/5/1 242/6/1 243/7/1 244/8/1
f 245/9/1 246/5/1 247/8/1 248/10/1
f 249/5/1 250/6/1 251/7/1 252/8/1

