# Tiled2Unity generated file. Do not modify by hand.
# Wavefront file for 'Classroom_mesh_0003.obj'

# Vertices (Count = 88)
v -8 -2 -0.125
v -10 -2 -0.125
v -10 0 -0.125
v -8 0 -0.125
v -9 -2.5 -0.1875
v -11 -2.5 -0.1875
v -11 -0.5 -0.1875
v -9 -0.5 -0.1875
v -10 -3 -0.25
v -12 -3 -0.25
v -12 -1 -0.25
v -10 -1 -0.25
v -11 -3.5 -0.3125
v -13 -3.5 -0.3125
v -13 -1.5 -0.3125
v -11 -1.5 -0.3125
v -12 -4 -0.375
v -14 -4 -0.375
v -14 -2 -0.375
v -12 -2 -0.375
v -8 -3 -0.25
v -10 -3 -0.25
v -10 -1 -0.25
v -8 -1 -0.25
v -9 -3.5 -0.3125
v -11 -3.5 -0.3125
v -11 -1.5 -0.3125
v -9 -1.5 -0.3125
v -10 -4 -0.375
v -12 -4 -0.375
v -12 -2 -0.375
v -10 -2 -0.375
v -11 -4.5 -0.4375
v -13 -4.5 -0.4375
v -13 -2.5 -0.4375
v -11 -2.5 -0.4375
v -6 -3 -0.25
v -8 -3 -0.25
v -8 -1 -0.25
v -6 -1 -0.25
v -10 -5 -0.5
v -12 -5 -0.5
v -12 -3 -0.5
v -10 -3 -0.5
v -5 -3.5 -0.3125
v -7 -3.5 -0.3125
v -7 -1.5 -0.3125
v -5 -1.5 -0.3125
v -4 -4 -0.375
v -6 -4 -0.375
v -6 -2 -0.375
v -4 -2 -0.375
v -9 -6.5 -0.6875
v -11 -6.5 -0.6875
v -11 -4.5 -0.6875
v -9 -4.5 -0.6875
v -3 -4.5 -0.4375
v -5 -4.5 -0.4375
v -5 -2.5 -0.4375
v -3 -2.5 -0.4375
v -4 -5 -0.5
v -6 -5 -0.5
v -6 -3 -0.5
v -4 -3 -0.5
v -8 -7 -0.75
v -10 -7 -0.75
v -10 -5 -0.75
v -8 -5 -0.75
v -2 -5 -0.5
v -4 -5 -0.5
v -4 -3 -0.5
v -2 -3 -0.5
v -3 -5.5 -0.5625
v -5 -5.5 -0.5625
v -5 -3.5 -0.5625
v -3 -3.5 -0.5625
v -3 -6.5 -0.6875
v -5 -6.5 -0.6875
v -5 -4.5 -0.6875
v -3 -4.5 -0.6875
v -4 -7 -0.75
v -6 -7 -0.75
v -6 -5 -0.75
v -4 -5 -0.75
v -5 -7.5 -0.8125
v -7 -7.5 -0.8125
v -7 -5.5 -0.8125
v -5 -5.5 -0.8125

# Texture cooridinates (Count = 22)
vt 0.8 0.6
vt 1 0.6
vt 1 0.8
vt 0.8 0.8
vt 0.4 0.2
vt 0.6 0.2
vt 0.6 0.4
vt 0.4 0.4
vt 0.2 0.2
vt 0.2 0.4
vt 0.8 0.2
vt 1 0.2
vt 1 0.4
vt 0.8 0.4
vt 0.4 0.6
vt 0.2 0.6
vt 0.6 0
vt 0.8 0
vt 0.6 0.6
vt 1 0
vt 0.4 0.8
vt 0.2 0.8

# Normal
vn 0 0 -1

# Mesh description
g Classroom_mesh_0003

# Faces
f 1/1/1 2/2/1 3/3/1 4/4/1
f 5/5/1 6/6/1 7/7/1 8/8/1
f 9/9/1 10/5/1 11/8/1 12/10/1
f 13/9/1 14/5/1 15/8/1 16/10/1
f 17/11/1 18/12/1 19/13/1 20/14/1
f 21/5/1 22/6/1 23/7/1 24/8/1
f 25/9/1 26/5/1 27/8/1 28/10/1
f 29/5/1 30/6/1 31/7/1 32/8/1
f 33/9/1 34/5/1 35/8/1 36/10/1
f 37/10/1 38/8/1 39/15/1 40/16/1
f 41/17/1 42/18/1 43/11/1 44/6/1
f 45/10/1 46/8/1 47/15/1 48/16/1
f 49/10/1 50/8/1 51/15/1 52/16/1
f 53/7/1 54/14/1 55/1/1 56/19/1
f 57/11/1 58/12/1 59/13/1 60/14/1
f 61/6/1 62/11/1 63/14/1 64/7/1
f 65/7/1 66/14/1 67/1/1 68/19/1
f 69/18/1 70/20/1 71/12/1 72/11/1
f 73/6/1 74/11/1 75/14/1 76/7/1
f 77/14/1 78/13/1 79/2/1 80/1/1
f 81/14/1 82/13/1 83/2/1 84/1/1
f 85/16/1 86/15/1 87/21/1 88/22/1

